<svg width="17" height="17" viewBox="0 0 17 17" fill="none" xmlns="http://www.w3.org/2000/svg">
<path d="M4.24318 13.4694C4.97652 13.4694 5.57652 12.8694 5.57652 12.1361V7.4694C5.57652 6.73607 4.97652 6.13607 4.24318 6.13607C3.50985 6.13607 2.90985 6.73607 2.90985 7.4694V12.1361C2.90985 12.8694 3.50985 13.4694 4.24318 13.4694ZM10.9099 10.1361V12.1361C10.9099 12.8694 11.5099 13.4694 12.2432 13.4694C12.9765 13.4694 13.5765 12.8694 13.5765 12.1361V10.1361C13.5765 9.40273 12.9765 8.80273 12.2432 8.80273C11.5099 8.80273 10.9099 9.40273 10.9099 10.1361ZM8.24318 13.4694C8.97652 13.4694 9.57652 12.8694 9.57652 12.1361V4.13607C9.57652 3.40273 8.97652 2.80273 8.24318 2.80273C7.50985 2.80273 6.90985 3.40273 6.90985 4.13607V12.1361C6.90985 12.8694 7.50985 13.4694 8.24318 13.4694Z" fill="white"/>
</svg>
