<svg width="15" height="15" viewBox="0 0 15 15" fill="none" xmlns="http://www.w3.org/2000/svg">
<g clip-path="url(#clip0_232_2857)">
<path d="M3.69004 12.9688C3.36921 12.9688 3.09465 12.8546 2.86638 12.6263C2.6381 12.3981 2.52377 12.1233 2.52338 11.8021V5.96875C2.52338 5.64792 2.63771 5.37336 2.86638 5.14508C3.09504 4.91681 3.3696 4.80247 3.69004 4.80208H8.94004V3.63542C8.94004 3.14931 8.7699 2.73611 8.42963 2.39583C8.08935 2.05556 7.67615 1.88542 7.19004 1.88542C6.78171 1.88542 6.42432 2.00947 6.11788 2.25758C5.81143 2.50569 5.60493 2.81428 5.49838 3.18333C5.45949 3.31944 5.37918 3.42892 5.25746 3.51175C5.13574 3.59458 5.00215 3.63581 4.85671 3.63542C4.69143 3.63542 4.55299 3.58194 4.44138 3.475C4.32977 3.36806 4.28835 3.24167 4.31713 3.09583C4.42407 2.43472 4.74724 1.87317 5.28663 1.41117C5.82602 0.949167 6.46049 0.718362 7.19004 0.71875C7.99699 0.71875 8.68493 1.00322 9.25388 1.57217C9.82282 2.14111 10.1071 2.82886 10.1067 3.63542V4.80208H10.69C11.0109 4.80208 11.2856 4.91642 11.5143 5.14508C11.743 5.37375 11.8571 5.64831 11.8567 5.96875V11.8021C11.8567 12.1229 11.7426 12.3977 11.5143 12.6263C11.286 12.855 11.0113 12.9691 10.69 12.9688H3.69004ZM7.19004 10.0521C7.51088 10.0521 7.78563 9.93794 8.01429 9.70967C8.24296 9.48139 8.3571 9.20664 8.35671 8.88542C8.35632 8.56419 8.24218 8.28964 8.01429 8.06175C7.7864 7.83386 7.51165 7.71953 7.19004 7.71875C6.86843 7.71797 6.59388 7.83231 6.36638 8.06175C6.13888 8.29119 6.02454 8.56575 6.02338 8.88542C6.02221 9.20508 6.13654 9.47983 6.36638 9.70967C6.59621 9.9395 6.87077 10.0536 7.19004 10.0521Z" fill="white"/>
</g>
<defs>
<clipPath id="clip0_232_2857">
<rect width="14" height="14" fill="white" transform="translate(0.18985 0.135742)"/>
</clipPath>
</defs>
</svg>
