<svg width="17" height="17" viewBox="0 0 17 17" fill="none" xmlns="http://www.w3.org/2000/svg">
<g clip-path="url(#clip0_232_2863)">
<path d="M8.90619 10.8152V14.1452M8.90619 10.8152L12.9022 14.1452M8.90619 10.8152L4.91021 14.1452M6.2422 4.82122V8.15121M8.90619 6.15321V8.15121M11.5702 7.48521V8.15121M15.5662 2.15723H2.24622M2.91221 2.15723H14.9002V7.61841C14.9002 8.73739 14.9002 9.29688 14.6824 9.72428C14.4909 10.1002 14.1852 10.4059 13.8093 10.5974C13.3819 10.8152 12.8224 10.8152 11.7034 10.8152H6.109C4.99002 10.8152 4.43053 10.8152 4.00314 10.5974C3.62719 10.4059 3.32154 10.1002 3.12998 9.72428C2.91221 9.29688 2.91221 8.73739 2.91221 7.61841V2.15723Z" stroke="black" stroke-width="1.37005" stroke-linecap="round" stroke-linejoin="round"/>
</g>
<defs>
<clipPath id="clip0_232_2863">
<rect width="15.984" height="15.984" fill="white" transform="translate(0.914246 0.15918)"/>
</clipPath>
</defs>
</svg>
